<svg xmlns="http://www.w3.org/2000/svg" xml:space="preserve" id="Layer_1" x="0" y="0" style="enable-background:new 0 0 100.6 100.6" version="1.1" viewBox="0 0 100.6 100.6">
  <style>
    .st1{fill:#a0935a}
  </style>
  <path d="M0-.4h101v101H0z" style="fill:#fff"/>
  <path d="M19.3 79.9c2.3-2.9 4.5-5.9 6.8-8.8.2-.3.6-.5.9-.6 3.8-.3 7.4-1.7 10.9-2.9 4.2-1.5 7.8-.5 10.9 2.6l.3.3c.1 0 .1-.1.2-.1-.5-.7-1-1.5-1.5-2.2-1.5-1.8-3.3-3.1-5.8-3.2-1.5-.1-2.9.3-4.3.9-2.6 1-5.2 1.9-8 2.3-.7.1-1.3.2-2 .3-.8.1-1.4-.4-1.5-1.1-.1-.6.4-1.2 1.1-1.4 1.3-.2 2.6-.3 3.9-.7 1.9-.5 3.8-1.2 5.7-1.8 1.6-.6 3.3-1.1 5.1-1 3 .2 5.4 1.5 7.4 3.8.5.5.9 1.1 1.3 1.7.4-.5.8-1.1 1.3-1.6 2.4-2.7 5.3-4.2 9-3.7 1.2.2 2.3.5 3.4.9 2 .6 3.9 1.3 5.9 1.9.8.3 1.2.9 1.1 1.5-.2.7-.9 1.1-1.7.8-2.2-.7-4.4-1.4-6.6-2.2-4.5-1.6-7.8.1-10.3 3.7-.3.4-.5.8-.6 1.2.7-.6 1.5-1.3 2.3-1.8 2.7-1.8 5.7-2.1 8.8-1.1 1.4.4 2.8 1 4.2 1.5 2.2.8 4.4 1.2 6.7 1.4.5.1 1 .3 1.3.7 2.1 2.7 4.2 5.5 6.3 8.2.1.2.3.4.4.5v1.6H19.5c-.2-.5-.2-1.1-.2-1.6zm30-.8c.3-2.4.2-4.6-1.6-6.4-.3-.3-.5-.6-.8-.9-1.8-1.7-3.9-2.7-6.4-2.3-1.2.2-2.3.5-3.4.9-2.9 1.2-5.9 2-9 2.4-.2 0-.5.2-.6.4-1.4 1.8-2.8 3.6-4.1 5.4-.1.1-.2.3-.3.4.8 0 1.5-.1 2.2-.1 3.2-.2 6.4-.6 9.4-1.6 1.6-.5 3.2-1.2 4.8-1.7 1.3-.5 2.7-.5 4 .1 1.2.6 2 1.6 2.6 2.8.1.2.3.4.5.4.9.2 1.8.2 2.7.2zm2.6 0h2.5c.4 0 .7-.1.9-.5 1.4-2.9 3.7-3.9 6.8-2.8 1.4.5 2.7 1 4.1 1.5 3 1 6.2 1.5 9.4 1.7.9.1 1.8 0 2.7 0-1.2-1.5-2.4-3-3.5-4.6-.7-1-1.5-1.6-2.9-1.8-2.9-.3-5.5-1.3-8.2-2.4-1.8-.7-3.6-1.1-5.5-.6-2.4.6-4.1 2.2-5.4 4.2-.4.6-.8 1.2-.9 1.8-.1 1.1 0 2.2 0 3.5zm-8.5-.1c-.5-1-1.4-1.5-2.4-1.2-1.2.3-2.3.7-3.5 1.1v.1h5.9zm20.3 0v-.2c-1.2-.4-2.4-.8-3.6-1.1-.9-.2-1.9.4-2.2 1.3h5.8z" class="st1"/>
  <path d="M69.4 18.8c.9.6.9.9.7 2-1.7 6.4-3.4 12.8-5.1 19.1-.2.6-.5 1.1-1.1 1.4.5.6.5 1.2.3 1.9-.6 2.4-1.1 4.8-2.1 7.1-1 2.2-2.3 4.1-4.4 5.4-1.3.8-2.8 1.2-4.3 1.2-.5 0-.7.2-.8.7-.2 2.2-.5 4.4-.7 6.6-.1.9-.6 1.4-1.4 1.3-.7-.1-1.2-.7-1.1-1.6.3-2.4.5-4.9.8-7.3-.4-.2-.7-.3-1.1-.5-2.1-1.1-3.1-3-3.6-5.2-.2-1.1-.1-1.5.9-2v-.1c-1.5-1-1.1-2.5-.8-3.8.5-2.1 1.2-4.1 1.9-6.2.3-.8.6-1 1.5-1h1.7s.1 0 .1-.1c-.2-1.1-.3-2.1-.5-3.2-.1-.6-.1-1.1.2-1.6 2.4-3.9 5.2-7.4 9-10.1 2.6-1.9 5.5-3.4 8.7-3.9.1 0 .2-.1.3-.1h.9zm-7.8 24.7c-.6 0-1 0-1.5-.1-.8-.1-1.2-.4-1.3-1-.1-.5.1-1.1.8-1.4.8-.5 1.7-1 2.6-1.4.4-.2.6-.5.7-.9.8-3.3 1.7-6.5 2.5-9.8.3-1.2.6-2.3.9-3.5-3.5 4.2-6.3 8.7-8.5 13.6S54 49.1 53.1 54.4c2.1 0 3.9-.9 5.2-2.5 1.9-2.4 2.6-5.4 3.3-8.4zm-11 10.7c2.1-12 7-22.5 14.7-31.9-1.1.5-2.1.9-3 1.5-4 2.5-7 6-9.5 10-.1.2-.1.4-.1.6.2 1.4.5 2.7.6 4.1.2 1.2-.3 1.7-1.5 1.7h-2c-.2 0-.4.1-.4.3-.7 1.9-1.3 3.8-1.5 5.8 0 .2.1.5.3.7.7.7 1.4 1.5 2.1 2.2.4.4.5.9.3 1.4-.2.5-.7.7-1.2.7h-1.1c.3 1.4 1 2.3 2.3 2.9zM75.1 67.2c0 .6-.6 1.2-1.2 1.2-.7 0-1.2-.6-1.2-1.3 0-.7.6-1.2 1.3-1.2.6.1 1.1.6 1.1 1.3z" class="st1"/>
</svg>
